<svg xmlns="http://www.w3.org/2000/svg" xmlns:xlink="http://www.w3.org/1999/xlink" width="50" zoomAndPan="magnify" viewBox="0 0 37.5 37.499999" height="50" preserveAspectRatio="xMidYMid meet" version="1.0"><defs><clipPath id="08b11212a2"><path d="M 0.472656 1 L 36.539062 1 L 36.539062 35.71875 L 0.472656 35.71875 Z M 0.472656 1 " clip-rule="nonzero"/></clipPath></defs><g clip-path="url(#08b11212a2)"><path fill="#9aa0a6" d="M 35.074219 35.929688 C 35.328125 35.8125 35.671875 35.441406 36.242188 34.652344 C 36.488281 34.3125 36.53125 33.953125 36.359375 33.621094 C 36.304688 33.511719 34.375 31.664062 32.074219 29.511719 C 29.777344 27.359375 27.421875 25.15625 26.84375 24.613281 C 26.265625 24.070312 25.714844 23.566406 25.621094 23.492188 C 25.527344 23.417969 25.425781 23.324219 25.402344 23.28125 C 25.375 23.238281 25.578125 22.867188 25.859375 22.449219 C 28.203125 18.941406 28.804688 14.539062 27.480469 10.558594 C 25.5625 4.769531 20.035156 0.945312 13.976562 1.199219 C 10.410156 1.351562 7.265625 2.730469 4.777344 5.226562 C 4.1875 5.820312 3.285156 6.984375 2.804688 7.78125 C 1.804688 9.4375 1.105469 11.539062 0.90625 13.496094 C 0.457031 17.910156 2.285156 22.429688 5.667969 25.265625 C 10.515625 29.335938 17.492188 29.597656 22.542969 25.90625 C 22.800781 25.714844 23.050781 25.558594 23.09375 25.558594 C 23.136719 25.558594 23.207031 25.644531 23.25 25.75 C 23.359375 26.019531 24.050781 26.6875 29.003906 31.3125 C 31.402344 33.554688 33.480469 35.445312 33.621094 35.519531 C 33.761719 35.589844 33.898438 35.683594 33.925781 35.726562 C 33.988281 35.828125 34.5 36.054688 34.667969 36.054688 C 34.742188 36.054688 34.925781 36 35.074219 35.929688 Z M 13.703125 26.574219 C 12.042969 26.445312 10.527344 26.019531 9.097656 25.28125 C 3.4375 22.351562 1.144531 15.410156 3.949219 9.679688 C 5.964844 5.554688 10.453125 2.878906 14.992188 3.097656 C 18.648438 3.273438 21.976562 5.074219 24.085938 8.023438 C 24.636719 8.792969 25.414062 10.324219 25.691406 11.191406 C 27.488281 16.769531 24.925781 22.84375 19.699219 25.390625 C 18.335938 26.054688 16.84375 26.46875 15.441406 26.570312 C 15.027344 26.601562 14.65625 26.628906 14.617188 26.632812 C 14.582031 26.636719 14.167969 26.613281 13.703125 26.574219 Z M 13.703125 26.574219 " fill-opacity="1" fill-rule="nonzero"/></g></svg>